<svg xmlns="http://www.w3.org/2000/svg" viewBox="0 0 1200 1400" role="img" aria-labelledby="title desc">
  <title id="title">MyBambook compression gloves</title>
  <desc id="desc">A warm editorial illustration of a pair of fingerless bamboo-green compression gloves.</desc>
  <defs>
    <linearGradient id="bg" x1="0" x2="1" y1="0" y2="1">
      <stop offset="0" stop-color="#fff9f2"/>
      <stop offset="0.55" stop-color="#f1e7da"/>
      <stop offset="1" stop-color="#d8c8ad"/>
    </linearGradient>
    <linearGradient id="glove" x1="0" x2="1" y1="0" y2="1">
      <stop offset="0" stop-color="#2f5b4f"/>
      <stop offset="1" stop-color="#173c34"/>
    </linearGradient>
    <filter id="shadow" x="-20%" y="-20%" width="140%" height="140%">
      <feDropShadow dx="0" dy="34" stdDeviation="34" flood-color="#403632" flood-opacity="0.18"/>
    </filter>
  </defs>
  <rect width="1200" height="1400" fill="url(#bg)"/>
  <circle cx="950" cy="220" r="210" fill="#b88e4a" opacity="0.12"/>
  <circle cx="190" cy="1040" r="260" fill="#173c34" opacity="0.08"/>
  <g filter="url(#shadow)">
    <path d="M354 246c-46 0-82 37-82 82v378c0 54 20 106 57 145l112 118v137c0 43 35 78 78 78h128c43 0 78-35 78-78V957l72-68c47-44 74-106 74-171V443c0-34-28-62-62-62s-62 28-62 62V623h-34V353c0-35-28-63-63-63s-63 28-63 63v270h-34V318c0-40-32-72-72-72s-72 32-72 72v305h-33V328c0-45-37-82-82-82z" fill="url(#glove)"/>
    <path d="M302 724c54-16 120-23 197-22 87 2 174 15 261 39" fill="none" stroke="#f7efe4" stroke-width="18" stroke-linecap="round" opacity="0.5"/>
    <path d="M442 965h275" fill="none" stroke="#f7efe4" stroke-width="24" stroke-linecap="round" opacity="0.46"/>
    <path d="M472 1034h214" fill="none" stroke="#f7efe4" stroke-width="16" stroke-linecap="round" opacity="0.36"/>
  </g>
  <g transform="translate(120 76)">
    <text x="0" y="0" dominant-baseline="hanging" font-family="Cormorant Garamond, Georgia, serif" font-size="86" letter-spacing="12" fill="#403632">My</text>
    <text x="130" y="0" dominant-baseline="hanging" font-family="Cormorant Garamond, Georgia, serif" font-size="86" letter-spacing="12" fill="#173c34">Bambook</text>
    <text x="4" y="102" dominant-baseline="hanging" font-family="Nunito, Arial, sans-serif" font-size="24" font-weight="800" letter-spacing="8" fill="#5b4f48">COMPRESSION GLOVES</text>
  </g>
</svg>
